
<svg xmlns="http://www.w3.org/2000/svg" version="1.1" xmlns:xlink="http://www.w3.org/1999/xlink" preserveAspectRatio="none" x="0px" y="0px" width="242px" height="40px" viewBox="0 0 242 40">
<defs>
<g id="Layer0_0_FILL">
<path fill="#FFFFFF" stroke="none" d="
M 45.6 23.4
Q 46.1 21.4 46.1 19.55 46.05 11.65 40.4 6 34.8 0.45 26.9 0.45 19 0.45 13.35 6 7.8 11.65 7.8 19.55 7.8 27.6 13.35 33.05 18.95 38.65 26.9 38.65 34.8 38.65 40.4 33.05
L 35 27.65
Q 31.8 31 26.9 31 22.15 31 18.8 27.65 15.4 24.35 15.4 19.55 15.4 14.85 18.8 11.45 22.2 8.05 26.9 8.05 30.65 8.05 33.65 10.15 36.55 12.35 37.7 15.65
L 30.75 15.65 30.75 23.4 45.6 23.4
M 90.2 19.55
Q 90.2 11.6 84.6 6 79 0.45 71 0.45 63.05 0.45 57.5 6 51.9 11.6 51.9 19.55 51.9 27.6 57.5 33.05 63.05 38.65 71 38.65 79.15 38.65 84.5 33.05
L 79.1 27.65
Q 75.95 31 71 31 66.25 31 62.9 27.65 59.5 24.35 59.5 19.55 59.5 14.85 62.9 11.45 66.3 8.05 71 8.05 74.75 8.05 77.75 10.15 80.7 12.35 81.8 15.65
L 74.85 15.65 74.85 23.4 89.8 23.4
Q 90.2 20.7 90.2 19.55
M 134.2 19.55
Q 134.3 11.6 128.7 6 123.1 0.45 115.1 0.45 107.15 0.45 101.6 6 96 11.6 96 19.55 96 27.6 101.6 33.05 107.15 38.65 115.1 38.65 123.15 38.65 128.6 33.05 134.2 27.6 134.2 19.55
M 123.2 11.45
Q 126.6 14.85 126.6 19.55 126.6 24.35 123.2 27.65 119.95 31 115.1 31 110.35 31 107 27.65 103.6 24.35 103.6 19.55 103.6 14.85 107 11.45 110.4 8.05 115.1 8.05 119.9 8.05 123.2 11.45
M 161.9 8.15
Q 159 6.3 155.05 6.3 150.95 6.3 148.5 8.45 145.9 10.55 145.9 14.15 145.9 17.2 148.15 19.15 149.4 20.25 153.3 22.1 156.25 23.35 157.4 24.25 158.85 25.45 158.85 27 158.85 28.85 157.3 29.95 155.8 31 153.5 31 148.9 31 145.9 27.95
L 145.9 32.55
Q 149.3 35.05 153.85 35.05 157.9 35.05 160.7 32.85 163.4 30.6 163.4 26.75 163.4 23.5 161 21.55 159.55 20.15 155.55 18.5 152.45 17.05 151.65 16.4 150.35 15.35 150.35 13.9 150.35 12.15 151.75 11.2 153.1 10.3 155.25 10.3 158.8 10.3 161.9 12.5
L 161.9 8.15
M 171.45 14.25
L 168.4 14.25 168.4 17.95 171.45 17.95 171.45 27.1
Q 171.45 30.8 173.55 32.75 175.5 34.85 179.1 34.85 179.8 34.85 181.7 34.5
L 181.7 30.8
Q 180.8 30.9 179.95 30.9 175.7 30.9 175.7 26.9
L 175.7 17.95 181.25 17.95 181.25 14.25 175.7 14.25 175.7 9.55 171.45 9.55 171.45 14.25
M 207.15 24.35
Q 207.15 19.8 204.2 16.85 201.35 13.8 196.9 13.8 192.4 13.8 189.5 16.85 186.55 19.8 186.55 24.35 186.55 28.9 189.5 32 192.45 34.95 196.9 34.95 201.35 34.95 204.2 32 207.15 28.9 207.15 24.35
M 191.05 24.35
Q 191.05 21.3 192.9 19.45 194.45 17.75 196.9 17.75 199.35 17.75 200.95 19.45 202.8 21.4 202.8 24.35 202.8 27.3 200.95 29.15 199.3 30.9 196.9 30.9 194.5 30.9 192.9 29.15 191.05 27.4 191.05 24.35
M 224.2 18.25
L 224.2 14.15 222.8 14.05
Q 218.85 14.05 217.15 17.4
L 217.05 17.4 216.6 14.25 213.1 14.25 213.1 34.4 217.45 34.4 217.45 23.5
Q 217.45 20.8 219.1 19.35 220.55 18.05 222.7 18.05
L 224.2 18.25
M 247.1 23.95
Q 247.1 19.1 244.5 16.3 242.9197265625 14.656640625 240.8 14.05 239.56640625 13.7 238.15 13.7 234.1 13.7 231.2 16.65 228.25 19.7 228.25 24.35 228.25 29.15 231.1 32 234 34.95 238.8 34.95 239.8326171875 34.95 240.8 34.8 243.6275390625 34.4146484375 245.9 32.85
L 245.9 28.95
Q 243.36484375 30.79375 240.8 31.2 240.0263671875 31.35 239.25 31.35 236.55 31.35 234.8 29.8 232.95 28.35 232.5 25.7
L 247 25.7 247.1 23.95
M 240.8 18.15
Q 241.1375 18.409765625 241.45 18.7 242.9 20.15 242.95 22.75
L 232.4 22.75
Q 232.85 20.4 234.45 18.8 236 17.4 238.15 17.4 239.6259765625 17.4 240.8 18.15 Z"/>
</g>
</defs>

<g transform="matrix( 1, 0, 0, 1, -6.65,0.45) ">
<use xlink:href="#Layer0_0_FILL"/>
</g>
</svg>
