
<svg xmlns="http://www.w3.org/2000/svg" version="1.1" xmlns:xlink="http://www.w3.org/1999/xlink" preserveAspectRatio="none" x="0px" y="0px" width="515px" height="515px" viewBox="0 0 515 515">
<defs>
<g id="Layer0_0_MEMBER_0_MEMBER_0_MEMBER_0_FILL">
<path fill="#4B4B4B" stroke="none" d="
M 513.5 1.8
L 1.45 1.8 1.45 474.35 513.5 474.35 513.5 1.8
M 462.8 52.35
L 462.8 423.7 52.05 423.7 52.05 52.35 462.8 52.35
M 353.2 244.75
Q 345.7 240.95 337.45 241.15 329.05 241.3 321.8 245.4 314.5 249.45 310.05 256.45
L 290.3 287.45 235.45 208.1
Q 230.8 201.2 223.3 197.45 215.9 193.6 207.55 193.75 199.2 194 191.95 198 184.6 202.15 180.2 209.15
L 86.75 356.05
Q 84.3 359.85 84.15 364.45 84 368.95 86.25 372.95 88.45 376.95 92.25 379.2 96.2 381.55 100.75 381.55
L 420.8 381.55
Q 425.3 381.55 429.45 379.1 433.4 376.65 435.55 372.6 437.65 368.55 437.35 363.95 437.1 359.25 434.45 355.55
L 365.3 255.45
Q 360.6 248.6 353.2 244.75
M 354.45 132.7
Q 342 120.15 324.1 120.15 306.35 120.15 293.8 132.7 281.2 145.3 281.2 163 281.2 180.8 293.8 193.4 306.45 205.95 324.1 205.95 341.85 205.95 354.45 193.4 367.05 180.8 367.05 163 367.05 145.3 354.45 132.7 Z"/>
</g>
</defs>

<g transform="matrix( 1, 0, 0, 1, 0,19.45) ">
<use xlink:href="#Layer0_0_MEMBER_0_MEMBER_0_MEMBER_0_FILL"/>
</g>
</svg>
