
<svg xmlns="http://www.w3.org/2000/svg" version="1.1" xmlns:xlink="http://www.w3.org/1999/xlink" preserveAspectRatio="none" x="0px" y="0px" width="515px" height="515px" viewBox="0 0 515 515">
<defs>
<g id="Layer0_0_MEMBER_0_MEMBER_0_MEMBER_0_FILL">
<path fill="#4B4B4B" stroke="none" d="
M 513.5 130.3
Q 513.5 119.7 509.35 109.9 505.4 100.35 498.25 93.3 491.05 86 481.7 82.05 472.05 77.9 461.35 77.9
L 404.95 77.9
Q 401.55 77.9 398.6 76 395.65 74.05 394.25 70.8
L 377.35 33
Q 370.95 18.8 358.1 10.5 345.15 2 329.75 2
L 185.15 2
Q 169.75 2 156.8 10.5 143.95 18.85 137.6 33
L 120.65 70.8
Q 119.25 74.05 116.3 76 113.4 77.9 110 77.9
L 53.55 77.9
Q 42.9 77.9 33.25 82.05 23.8 86.05 16.6 93.3 9.5 100.4 5.55 109.9 1.5 119.65 1.5 130.3
L 1.5 373
Q 1.5 383.6 5.55 393.35 9.45 402.7 16.6 410 23.8 417.2 33.25 421.25 42.95 425.35 53.55 425.35
L 461.35 425.35
Q 472 425.35 481.7 421.25 491.05 417.2 498.25 410 505.45 402.75 509.35 393.35 513.5 383.55 513.5 373
L 513.5 130.3
M 340.95 160.05
Q 357.2 176.45 366.2 197.85 375.45 219.95 375.45 244.05 375.45 268.15 366.2 290.25 357.15 311.7 340.95 328 324.6 344.5 303.45 353.5 281.4 362.95 257.5 362.95 233.5 362.95 211.5 353.6 190.3 344.55 174 328 157.7 311.7 148.75 290.25 139.5 268.3 139.5 244.05 139.5 219.8 148.75 197.85 157.7 176.45 174 160.05 190.3 143.55 211.5 134.55 233.55 125.15 257.5 125.15 281.4 125.15 303.45 134.55 324.6 143.55 340.95 160.05
M 463.45 172.25
L 427.6 172.25 427.6 136.4 463.45 136.4 463.45 172.25
M 344.45 244.05
Q 344.4 226.1 337.6 209.85 330.85 193.95 318.85 181.85 306.65 169.65 291.25 163.1 275.25 156.25 257.5 156.15 239.7 156.25 223.65 163.1 208.25 169.65 196.05 181.85 184 193.95 177.35 209.85 170.5 226.1 170.5 244.05 170.5 262 177.35 278.25 184 294.15 196.05 306.2 208.2 318.45 223.65 325 239.65 331.85 257.5 331.85 275.3 331.85 291.25 325 306.75 318.45 318.85 306.2 330.85 294.2 337.6 278.25 344.4 262 344.45 244.05
M 295.45 205.75
Q 311.1 221.55 311.1 244.05 311.1 266.55 295.45 282.35 279.7 298.25 257.5 298.25 235.25 298.25 219.5 282.35 203.8 266.6 203.8 244.05 203.8 221.55 219.5 205.75 235.25 189.85 257.5 189.85 279.7 189.85 295.45 205.75 Z"/>
</g>
</defs>

<g transform="matrix( 1, 0, 0, 1, 0,43.85) ">
<use xlink:href="#Layer0_0_MEMBER_0_MEMBER_0_MEMBER_0_FILL"/>
</g>
</svg>
