
<svg xmlns="http://www.w3.org/2000/svg" version="1.1" xmlns:xlink="http://www.w3.org/1999/xlink" preserveAspectRatio="none" x="0px" y="0px" width="515px" height="515px" viewBox="0 0 515 515">
<defs>
<g id="Layer2_0_FILL">
<path fill="#4B4B4B" stroke="none" d="
M 343.4 98.85
L 332.9 75.35
Q 328.9 66.5 320.95 61.35 312.9 56.1 303.35 56.1
L 213.5 56.1
Q 204 56.1 195.95 61.35 187.9 66.55 184 75.35
L 173.5 98.85
Q 172.6 100.9 170.8 102.05 169 103.2 166.85 103.2
L 131.8 103.2
Q 125.15 103.2 119.2 105.8 113.3 108.3 108.85 112.8 104.4 117.2 102 123.1 99.5 129.15 99.5 135.8
L 99.5 286.5
Q 99.5 293.1 102 299.15 104.45 305.05 108.85 309.5 113.3 314 119.2 316.45 125.25 319.05 131.8 319.05
L 385.1 319.05
Q 391.65 319.05 397.7 316.45 403.45 314 408 309.5 412.45 305 414.9 299.15 417.45 293 417.45 286.5
L 417.45 135.8
Q 417.45 129.25 414.9 123.1 412.4 117.15 408 112.8 403.45 108.25 397.7 105.8 391.75 103.2 385.1 103.2
L 350.05 103.2
Q 347.9 103.2 346.1 102.05 344.3 100.9 343.4 98.85
M 386.4 139.55
L 386.4 161.8 364.1 161.8 364.1 139.55 386.4 139.55
M 331.75 206.45
Q 331.75 221.4 326 235.1 320.35 248.45 310.3 258.55 300.15 268.8 287 274.4 273.35 280.3 258.5 280.3 243.65 280.3 229.9 274.5 216.75 268.85 206.6 258.55 196.45 248.45 190.95 235.1 185.2 221.55 185.2 206.45 185.2 191.3 190.95 177.75 196.5 164.4 206.6 154.25 216.75 144 229.9 138.45 243.55 132.55 258.5 132.55 273.3 132.55 287 138.45 300.15 144 310.3 154.25 320.45 164.5 326 177.75 331.75 191.45 331.75 206.45
M 237.4 156.15
Q 227.85 160.25 220.3 167.8 212.75 175.35 208.7 185.2 204.45 195.2 204.45 206.45 204.45 217.65 208.7 227.65 212.75 237.5 220.3 245.05 227.9 252.65 237.4 256.7 247.4 260.95 258.5 260.95 269.55 260.95 279.45 256.7 289.05 252.65 296.6 245.05 304.05 237.6 308.25 227.65 312.45 217.55 312.5 206.45 312.45 195.3 308.25 185.2 304.05 175.3 296.6 167.8 289 160.25 279.45 156.15 269.55 151.9 258.5 151.8 247.35 151.9 237.4 156.15
M 258.5 172.8
Q 272.25 172.8 282.05 182.6 291.75 192.5 291.75 206.45 291.75 220.4 282.05 230.25 272.25 240.05 258.5 240.05 244.65 240.05 234.9 230.25 225.15 220.5 225.15 206.45 225.15 192.45 234.9 182.6 244.65 172.8 258.5 172.8 Z"/>
</g>

<g id="Layer1_0_FILL">
<path fill="#4B4B4B" stroke="none" d="
M 72.2 256.4
Q 48.4 267.45 32.7 283.55 15.8 300.95 8.65 323.7 0.4 349.95 9.6 372.8 18.9 395.75 44.85 412.7 71.7 430.15 113.9 439.35 158.25 449 216.1 448.65
L 216.1 478.4 288.45 428.4 288.45 428.2 216.1 381.25 216.1 408.9
Q 149.45 406 113.45 397.8 70.5 388.05 48.5 366.85 22.1 341.45 28.8 312.35 35.35 283.95 72.2 256.4
M 472.3 277.55
Q 458.4 269.75 447.5 265.7
L 443.9 273.4
Q 459.75 280.45 470.55 291.75 480.9 302.7 484 314.85 488.15 331.55 484 345.65 481.4 354.7 475.25 362.75 459.65 383.15 422.55 393.95 408.4 398.05 392.6 400.75 367.15 405 337.65 405.5 320.45 405.8 307.1 406
L 307.1 454.1
Q 336.2 453.4 363.15 451.3 378.75 450 392.6 447.8 416.7 443.95 435.45 437.1 465.05 426.35 485.4 407 505.75 387.65 511.2 364 513.25 354.9 513.45 345.65 513.45 342.9 513.3 340.15 512.75 328.1 508.85 317.25 504.75 306 495.95 296.1 486.55 285.55 472.3 277.55 Z"/>
</g>

<g id="Layer0_0_FILL">
<path fill="#4B4B4B" stroke="none" d="
M 475.2 249
L 424.95 258.85 445.45 305.05 475.2 249 Z"/>
</g>
</defs>

<g transform="matrix( 0.922119140625, 0, 0, 0.922119140625, 15.4,-5.95) ">
<use xlink:href="#Layer2_0_FILL"/>
</g>

<g transform="matrix( 1, 0, 0, 1, 0,0) ">
<use xlink:href="#Layer1_0_FILL"/>
</g>

<g transform="matrix( 1, 0, 0, 1, 0,0) ">
<use xlink:href="#Layer0_0_FILL"/>
</g>
</svg>
