
<svg xmlns="http://www.w3.org/2000/svg" version="1.1" xmlns:xlink="http://www.w3.org/1999/xlink" preserveAspectRatio="none" x="0px" y="0px" width="100px" height="140px" viewBox="0 0 100 140">
<defs>
<g id="Layer0_0_MEMBER_0_MEMBER_0_MEMBER_0_FILL">
<path fill="#000000" stroke="none" d="
M 83.4 83.45
Q 97.4 69.65 97.3 50 97.4 30.5 83.4 16.5 69.55 2.65 50 2.7 30.45 2.65 16.5 16.5 2.6 30.5 2.65 50 2.6 69.6 16.5 83.45 30.4 97.45 50 97.35 69.6 97.45 83.4 83.45
M 50 9.65
Q 66.75 9.75 78.5 21.5 90.3 33.3 90.3 50 90.3 66.7 78.5 78.5 66.65 90.35 50 90.35 33.25 90.35 21.45 78.5 9.7 66.8 9.6 50 9.7 33.2 21.45 21.5 33.15 9.75 50 9.65
M 49.65 21.25
Q 48.25 21.25 47.15 22.25 46.15 23.3 46.15 24.75
L 46.15 66.85 32.2 52.95
Q 31.15 51.9 29.75 51.95 28.25 51.95 27.25 52.95 26.25 53.95 26.25 55.45 26.2 56.85 27.25 57.85
L 47.25 77.85 48 78.45 48.3 78.6 49.65 78.85 49.7 78.85
Q 51.1 78.75 52.05 77.75
L 72.75 56.55
Q 73.75 55.45 73.75 54.05 73.7 52.65 72.65 51.6 71.55 50.6 70.15 50.6 68.7 50.7 67.75 51.7
L 53.15 66.7 53.15 24.75
Q 53.15 23.45 52.05 22.25 51.05 21.25 49.65 21.25 Z"/>
</g>

<g id="Layer0_1_FILL">
<path fill="#000000" stroke="none" d="
M 27.2 109.6
Q 28.05 109.8 28.7 110.1
L 29.35 107.65
Q 28.95 107.4 27.85 107.15 26.8 106.9 25.1 106.85 22.3 106.9 20.1 108.05 17.9 109.3 16.6 111.6 15.35 113.95 15.3 117.35 15.35 120.5 16.5 122.75 17.65 125 19.7 126.15 21.8 127.35 24.55 127.35 26.2 127.35 27.4 127.1 28.6 126.85 29.25 126.5
L 28.75 124.1
Q 28.05 124.4 27.1 124.6 26.15 124.8 25.15 124.8 22.05 124.8 20.3 122.8 18.5 120.85 18.5 117.15 18.5 114.6 19.4 112.85 20.25 111.1 21.75 110.25 23.25 109.4 25.2 109.4 26.3 109.4 27.2 109.6
M 40.65 116.8
Q 40.9 117.65 40.9 118.7
L 40.9 127.05 43.9 127.05 43.9 118.4
Q 43.9 116.15 43.2 114.85 42.5 113.5 41.4 112.95 40.35 112.4 39.25 112.4 38.05 112.4 36.95 113 35.85 113.55 35.15 114.65
L 35.1 114.65 35.1 106.2 32.05 106.2 32.05 127.05 35.1 127.05 35.1 118.3
Q 35.1 117.2 35.55 116.45 36 115.7 36.7 115.3 37.4 114.9 38.15 114.9 39.15 114.95 39.75 115.45 40.35 115.95 40.65 116.8
M 47.6 116.2
Q 46.85 117.9 46.85 120.1 46.85 122.3 47.65 123.9 48.45 125.55 49.95 126.45 51.5 127.35 53.65 127.35 55.1 127.35 56.25 127.1 57.45 126.85 58.2 126.5
L 57.7 124.35
Q 57 124.65 56.15 124.85 55.25 125.05 54.1 125.05 52.95 125.05 52 124.6 51 124.15 50.4 123.15 49.8 122.2 49.75 120.6
L 58.85 120.6
Q 58.9 120.3 58.9 120 58.95 119.65 58.95 119.3 58.95 117.5 58.35 115.95 57.8 114.4 56.55 113.4 55.3 112.45 53.3 112.4 51.25 112.45 49.8 113.45 48.4 114.45 47.6 116.2
M 49.75 118.4
Q 49.85 117.55 50.2 116.7 50.55 115.8 51.25 115.2 52 114.6 53.05 114.55 54.25 114.6 54.9 115.2 55.55 115.8 55.8 116.65 56.1 117.55 56.05 118.4
L 49.75 118.4
M 68.4 114.8
Q 69.3 114.8 69.95 115 70.55 115.15 70.95 115.35
L 71.55 113.05
Q 71.05 112.8 70.25 112.6 69.4 112.45 68.35 112.4 66.05 112.45 64.4 113.45 62.75 114.4 61.85 116.1 60.95 117.85 60.95 120.05 60.95 122.3 61.8 123.9 62.65 125.55 64.15 126.45 65.7 127.35 67.8 127.35 69.05 127.35 70 127.1 70.95 126.85 71.5 126.6
L 71.05 124.35
Q 70.55 124.6 69.9 124.75 69.25 124.9 68.35 124.95 67.1 124.95 66.1 124.35 65.15 123.75 64.6 122.6 64.05 121.5 64 119.9 64 118.5 64.5 117.35 65.05 116.2 66 115.5 66.95 114.8 68.4 114.8
M 77.2 106.2
L 74.15 106.2 74.15 127.05 77.2 127.05 77.2 121.9 78.35 120.45 82.45 127.05 86.1 127.05 80.4 118.65 85.45 112.75 81.9 112.75 78.35 117.5
Q 78.05 117.9 77.75 118.35 77.5 118.75 77.25 119.2
L 77.2 119.2 77.2 106.2 Z"/>
</g>
</defs>

<g transform="matrix( 1, 0, 0, 1, 0,0) ">
<use xlink:href="#Layer0_0_MEMBER_0_MEMBER_0_MEMBER_0_FILL"/>
</g>

<g transform="matrix( 1.3375701904296875, 0, 0, 1.3375701904296875, -17.8,-38.9) ">
<use xlink:href="#Layer0_1_FILL"/>
</g>
</svg>
