
<svg xmlns="http://www.w3.org/2000/svg" version="1.1" xmlns:xlink="http://www.w3.org/1999/xlink" preserveAspectRatio="none" x="0px" y="0px" width="50px" height="50px" viewBox="0 0 50 50">
<defs>
<g id="Layer1_0_FILL">
<path fill="#FFFFFF" stroke="none" d="
M 45.7 8
Q 45.1 7.05 44.1 6.05 43.25 5.25 42.1 4.5 41.05 3.75 40.05 3.4 38.9 2.95 37.6 2.7 36.7 2.5 34.45 2.35
L 15.6 2.35
Q 13.45 2.5 12.4 2.7 11.15 2.95 10.05 3.4
L 7.9 4.5
Q 7 5.1 6 6.05 5 7.05 4.4 8
L 3.35 10.15
Q 2.85 11.25 2.65 12.45 2.4 13.55 2.25 15.7
L 2.25 34.55
Q 2.4 36.8 2.65 37.7 2.85 38.8 3.35 40.1 3.7 41.1 4.4 42.2 5.15 43.35 6 44.2 7.05 45.25 7.9 45.7 8.5 46.15 10.05 46.75
L 12.4 47.5
Q 14.4 47.85 15.6 47.85
L 34.45 47.85
Q 35.8 47.85 37.6 47.5
L 40.05 46.75
Q 40.8 46.5 42.2 45.75 43.4 44.85 44.1 44.2 44.95 43.35 45.7 42.2 46.35 41.1 46.75 40.1 47.35 38.05 47.45 37.7 47.75 35.85 47.75 34.55
L 47.75 15.7
Q 47.75 14.45 47.45 12.45
L 46.75 10.15 45.7 8
M 41.2 9
L 42.2 10.2 42.85 11.55
Q 43.25 12.4 43.35 13.15 43.6 14.7 43.6 15.85
L 43.6 34.4
Q 43.6 35.45 43.35 36.95 43.25 37.35 42.85 38.6
L 42.2 40.05 41.2 41.25 39.95 42.25 38.55 42.95 36.9 43.4
Q 35.4 43.7 34.25 43.7
L 15.8 43.7
Q 14.1 43.7 13.1 43.4
L 11.5 42.95 10.15 42.25 8.9 41.25 7.9 40.05 7.15 38.6 6.65 36.95 6.4 34.4 6.4 15.85 6.65 13.15 7.15 11.65
Q 7.5 10.75 7.9 10.2
L 8.9 9
Q 9.65 8.2 10.15 8 10.75 7.5 11.5 7.3
L 13.1 6.75
Q 13.95 6.6 15.8 6.45
L 34.25 6.45
Q 36.05 6.6 36.9 6.75
L 38.55 7.3
Q 39.3 7.5 39.95 8
L 41.2 9
M 25 13.3
Q 22.65 13.3 20.45 14.2 18.45 15.15 16.7 16.75 15.15 18.3 14.15 20.5 13.25 22.7 13.25 25.1 13.25 27.5 14.15 29.65 15.05 31.8 16.7 33.4 18.45 35 20.45 35.9 22.65 36.85 25 36.85 27.45 36.85 29.6 35.9 31.8 34.95 33.3 33.4 34.95 31.8 35.85 29.65 36.8 27.5 36.8 25.1 36.8 22.7 35.85 20.5 34.95 18.5 33.3 16.75 31.8 15.2 29.6 14.2 27.45 13.3 25 13.3
M 22 18.05
Q 23.6 17.45 25 17.45 26.5 17.45 28 18.05 29.4 18.7 30.4 19.7 31.5 20.85 32.05 22.1 32.65 23.4 32.65 25.1 32.65 26.85 32.05 28.05 31.4 29.5 30.4 30.5 29.4 31.5 28 32.1 26.75 32.7 25 32.7 23.35 32.7 22 32.1 20.8 31.55 19.6 30.5 18.6 29.5 17.95 28.05 17.35 26.6 17.35 25.1 17.35 23.7 17.95 22.1 18.5 20.85 19.6 19.7 20.8 18.6 22 18.05
M 39.2 10.95
Q 38.35 10.15 37.2 10.15 36.15 10.15 35.3 10.95 34.45 11.8 34.45 12.9 34.45 13.85 35.3 14.85 36.05 15.6 37.2 15.6 38.45 15.6 39.2 14.85 39.95 14.05 39.95 12.9 39.95 11.7 39.2 10.95 Z"/>
</g>
</defs>

<g transform="matrix( 1, 0, 0, 1, 0,0) ">
<use xlink:href="#Layer1_0_FILL"/>
</g>
</svg>
