
<svg xmlns="http://www.w3.org/2000/svg" version="1.1" xmlns:xlink="http://www.w3.org/1999/xlink" preserveAspectRatio="none" x="0px" y="0px" width="512px" height="512px" viewBox="0 0 512 512">
<defs>
<g id="Layer0_0_FILL">
<path fill="#4B4B4B" stroke="none" d="
M 94.9 152.4
L 68.1 132.95
Q 42.45 168.3 34.05 210.9 25.9 251.95 35.05 293
L 6.55 302.2 76.55 357.9 95.1 273.65 67 282.7
Q 65.7 278 65.4 275.6 60.25 243.55 67.55 212.2 75.1 179.7 94.9 152.4
M 412.55 229.25
L 440.7 220.15
Q 440.85 220.8 441.6 223.8 442.15 225.95 442.35 227.4 447.4 259.4 440.15 290.8 432.65 323.25 412.85 350.55
L 439.65 370.05
Q 465.3 334.7 473.75 292.1 481.85 251 472.65 209.95
L 501.2 200.8 431.2 145.05 412.55 229.25
M 360.45 40.75
Q 350 30.2 335.25 30.15
L 177.1 29.8
Q 162.35 29.8 151.85 40.3 141.3 50.8 141.25 65.55
L 140.55 447.1
Q 140.5 461.8 150.95 472.35 161.4 482.9 176.15 482.9
L 334.3 483.2
Q 349 483.25 359.55 472.75 370.1 462.3 370.1 447.55
L 370.9 66
Q 370.95 51.25 360.45 40.75
M 244.9 428.2
Q 249.25 423.9 255.35 423.9 261.45 423.9 265.8 428.2 270.15 432.55 270.1 438.65 270.1 444.75 265.75 449.05 261.45 453.4 255.35 453.4 249.2 453.35 244.95 449.05 240.6 444.75 240.65 438.6 240.65 432.55 244.9 428.2
M 162.95 405.35
L 163.55 90.95 348.5 91.3 347.85 405.75 162.95 405.35 Z"/>
</g>
</defs>

<g transform="matrix( 1, 0, 0, 1, 0,0) ">
<use xlink:href="#Layer0_0_FILL"/>
</g>
</svg>
